<svg width="20" height="20" fill="none" viewBox="0 0 20 20" xmlns="http://www.w3.org/2000/svg">
  <path
    d="M4.1667 18.3252H15c1.005 0 2.5-.6658 2.5-2.5V4.1585c0-1.8341-1.495-2.5-2.5-2.5H2.5v1.6667h12.49c.385.01.8433.1625.8433.8333a1.256 1.256 0 0 1-.02.2275c-.0933.4792-.4858.5975-.8225.6059H3.3333c-.015 0-.0258.0075-.0408.0083H2.5v11.6583c0 .9192.7475 1.6667 1.6667 1.6667Zm0-11.6667h11.6666v9.1667c0 .6717-.4583.8233-.8333.8333H9.1667v-5.8333L7.5 11.6585l-1.6667-.8333v5.8333H4.1667v-10Z"
    fill="currentColor" />
</svg>