<svg width="16" height="16" fill="none" viewBox="0 0 16 16" xmlns="http://www.w3.org/2000/svg">
  <path
    d="M8.2 8.147a3.28 3.28 0 0 0 1.133-2.48 3.333 3.333 0 1 0-6.666 0A3.28 3.28 0 0 0 3.8 8.147 5.333 5.333 0 0 0 .667 13 .667.667 0 0 0 2 13a4 4 0 0 1 8 0 .667.667 0 0 0 1.333 0A5.334 5.334 0 0 0 8.2 8.147ZM6 7.667a2 2 0 1 1 0-4 2 2 0 0 1 0 4Zm6.493.213A3.332 3.332 0 0 0 10 2.334a.667.667 0 1 0 0 1.333 2 2 0 0 1 2 2 2 2 0 0 1-1 1.727.667.667 0 0 0-.033 1.133l.26.173.086.047A4.666 4.666 0 0 1 13.98 13a.667.667 0 0 0 1.333 0 6 6 0 0 0-2.82-5.12Z"
    fill="currentColor" />
</svg>